<?xml version="1.0" encoding="UTF-8" standalone="no"?>
<svg
   xmlns:dc="http://purl.org/dc/elements/1.1/"
   xmlns:cc="http://creativecommons.org/ns#"
   xmlns:rdf="http://www.w3.org/1999/02/22-rdf-syntax-ns#"
   xmlns:svg="http://www.w3.org/2000/svg"
   xmlns="http://www.w3.org/2000/svg"
   xmlns:sodipodi="http://sodipodi.sourceforge.net/DTD/sodipodi-0.dtd"
   xmlns:inkscape="http://www.inkscape.org/namespaces/inkscape"
   width="77mm"
   height="11mm"
   viewBox="0 0 77 11"
   version="1.1"
   id="svg8"
   inkscape:version="1.0.2 (e86c870879, 2021-01-15)"
   sodipodi:docname="introtaller.svg">
  <defs
     id="defs2" />
  <sodipodi:namedview
     id="base"
     pagecolor="#ffffff"
     bordercolor="#666666"
     borderopacity="1.0"
     inkscape:pageopacity="0.0"
     inkscape:pageshadow="2"
     inkscape:zoom="1.979899"
     inkscape:cx="144.04735"
     inkscape:cy="191.19945"
     inkscape:document-units="mm"
     inkscape:current-layer="layer1"
     inkscape:document-rotation="0"
     showgrid="false"
     inkscape:window-width="2792"
     inkscape:window-height="1796"
     inkscape:window-x="1920"
     inkscape:window-y="27"
     inkscape:window-maximized="0" />
  <metadata
     id="metadata5">
    <rdf:RDF>
      <cc:Work
         rdf:about="">
        <dc:format>image/svg+xml</dc:format>
        <dc:type
           rdf:resource="http://purl.org/dc/dcmitype/StillImage" />
        <dc:title />
      </cc:Work>
    </rdf:RDF>
  </metadata>
  <g
     inkscape:label="Layer 1"
     inkscape:groupmode="layer"
     id="layer1">
    <path
       d="M 5.5268551,4.254694 H 6.1265002 V 7.9047074 H 5.5268551 Z m 0,-1.420898 H 6.1265002 V 3.5931291 H 5.5268551 Z"
       style="font-style:normal;font-weight:normal;font-size:6.67431px;line-height:1.25;font-family:sans-serif;fill:#000000;fill-opacity:1;stroke:none;stroke-width:0.166858"
       id="path832" />
    <path
       d="M 10.415266,5.7016636 V 7.9047074 H 9.8156209 V 5.7212173 q 0,-0.5181716 -0.2020543,-0.7756279 -0.2020543,-0.2574563 -0.6061629,-0.2574563 -0.4855822,0 -0.7658511,0.3095994 Q 7.9612838,5.3073318 7.9612838,5.8417981 V 7.9047074 H 7.3583798 V 4.254694 h 0.602904 v 0.5670557 q 0.21509,-0.329153 0.5051357,-0.4921 0.2933047,-0.1629471 0.6746007,-0.1629471 0.6289755,0 0.9516108,0.3910729 0.322635,0.3878139 0.322635,1.1438881 z"
       style="font-style:normal;font-weight:normal;font-size:6.67431px;line-height:1.25;font-family:sans-serif;fill:#000000;fill-opacity:1;stroke:none;stroke-width:0.166858"
       id="path834" />
    <path
       d="m 13.459117,2.833796 v 0.4986179 h -0.573574 q -0.322635,0 -0.449734,0.1303576 -0.12384,0.1303576 -0.12384,0.4692874 V 4.254694 h 0.987459 V 4.7207225 H 12.311969 V 7.9047074 H 11.709065 V 4.7207225 H 11.135492 V 4.254694 h 0.573573 V 4.0004967 q 0,-0.6094219 0.283528,-0.8864318 0.283528,-0.2802689 0.899468,-0.2802689 z"
       style="font-style:normal;font-weight:normal;font-size:6.67431px;line-height:1.25;font-family:sans-serif;fill:#000000;fill-opacity:1;stroke:none;stroke-width:0.166858"
       id="path836" />
    <path
       d="m 15.375374,4.6750974 q -0.482324,0 -0.762592,0.3780371 -0.280269,0.3747781 -0.280269,1.0298252 0,0.655047 0.27701,1.0330841 0.280268,0.3747782 0.765851,0.3747782 0.479064,0 0.759333,-0.3780371 0.280269,-0.3780371 0.280269,-1.0298252 0,-0.6485292 -0.280269,-1.0265663 -0.280269,-0.381296 -0.759333,-0.381296 z m 0,-0.5083948 q 0.782145,0 1.22862,0.5083948 0.446475,0.5083947 0.446475,1.4078623 0,0.8962086 -0.446475,1.4078623 -0.446475,0.5083947 -1.22862,0.5083947 -0.785405,0 -1.23188,-0.5083947 -0.443216,-0.5116537 -0.443216,-1.4078623 0,-0.8994676 0.443216,-1.4078623 0.446475,-0.5083948 1.23188,-0.5083948 z"
       style="font-style:normal;font-weight:normal;font-size:6.67431px;line-height:1.25;font-family:sans-serif;fill:#000000;fill-opacity:1;stroke:none;stroke-width:0.166858"
       id="path838" />
    <path
       d="m 19.898784,6.1546564 q 0,0.4660285 0.231385,0.7332616 0.231384,0.2639742 0.635493,0.2639742 0.40085,0 0.628975,-0.2672332 0.231385,-0.2672331 0.231385,-0.7300026 0,-0.4562517 -0.234643,-0.7234848 -0.234644,-0.2704921 -0.632235,-0.2704921 -0.394332,0 -0.628975,0.2672331 -0.231385,0.2672332 -0.231385,0.7267438 z m 1.776122,0.9744232 q -0.195536,0.2509384 -0.449733,0.3715192 -0.250939,0.1173219 -0.58661,0.1173219 -0.560538,0 -0.912503,-0.4041087 -0.348707,-0.4073675 -0.348707,-1.0591556 0,-0.6517881 0.351966,-1.0591557 0.351965,-0.4073676 0.909244,-0.4073676 0.335671,0 0.589868,0.1238398 0.254198,0.1205808 0.446475,0.3682602 V 4.7533119 h 0.466029 v 2.3985803 q 0.475805,-0.071697 0.743038,-0.4334391 0.270492,-0.3650014 0.270492,-0.9418338 0,-0.3487067 -0.104286,-0.6550471 Q 22.949152,4.8152318 22.74058,4.5545166 22.40165,4.1275954 21.912809,3.9027285 21.427227,3.6746026 20.853653,3.6746026 q -0.400849,0 -0.76911,0.1075451 -0.36826,0.1042861 -0.681118,0.3128583 -0.511654,0.3324119 -0.8017,0.873396 -0.286786,0.5377252 -0.286786,1.1667007 0,0.5181716 0.185759,0.9711643 0.189019,0.4529927 0.544243,0.7984404 0.342189,0.3389298 0.791923,0.5149126 0.449734,0.1792418 0.961387,0.1792418 0.420404,0 0.824512,-0.1433934 0.407368,-0.1401345 0.746298,-0.4041086 l 0.293304,0.3617424 q -0.407367,0.3161172 -0.88969,0.4823232 -0.479065,0.1694649 -0.974424,0.1694649 -0.602904,0 -1.13737,-0.2150901 Q 19.126415,8.6379691 18.70927,8.2306015 18.292126,7.8232339 18.073777,7.2887677 17.855428,6.7510425 17.855428,6.1351027 q 0,-0.5931272 0.221608,-1.1308523 0.221608,-0.5377252 0.632234,-0.9450928 0.420404,-0.4138854 0.971165,-0.6322345 0.550761,-0.2216079 1.1667,-0.2216079 0.690896,0 1.280764,0.2835278 0.593127,0.2835278 0.993977,0.8049583 0.24442,0.3193762 0.371519,0.6941544 0.130358,0.3747781 0.130358,0.7756278 0,0.8571014 -0.518172,1.3524603 -0.518171,0.495359 -1.430675,0.5149126 z"
       style="font-style:normal;font-weight:normal;font-size:6.67431px;line-height:1.25;font-family:sans-serif;fill:#000000;fill-opacity:1;stroke:none;stroke-width:0.166858"
       id="path840" />
    <path
       d="m 24.718757,4.254694 h 0.599645 v 3.6500134 h -0.599645 z m 0,-1.420898 h 0.599645 v 0.7593331 h -0.599645 z"
       style="font-style:normal;font-weight:normal;font-size:6.67431px;line-height:1.25;font-family:sans-serif;fill:#000000;fill-opacity:1;stroke:none;stroke-width:0.166858"
       id="path842" />
    <path
       d="M 29.607167,5.7016636 V 7.9047074 H 29.007522 V 5.7212173 q 0,-0.5181716 -0.202055,-0.7756279 -0.202054,-0.2574563 -0.606163,-0.2574563 -0.485582,0 -0.765851,0.3095994 -0.280269,0.3095993 -0.280269,0.8440656 V 7.9047074 H 26.55028 V 4.254694 h 0.602904 v 0.5670557 q 0.215091,-0.329153 0.505136,-0.4921 0.293305,-0.1629471 0.674601,-0.1629471 0.628975,0 0.951611,0.3910729 0.322635,0.3878139 0.322635,1.1438881 z"
       style="font-style:normal;font-weight:normal;font-size:6.67431px;line-height:1.25;font-family:sans-serif;fill:#000000;fill-opacity:1;stroke:none;stroke-width:0.166858"
       id="path844" />
    <path
       d="M 31.396327,3.2183509 V 4.254694 h 1.235138 v 0.4660285 h -1.235138 v 1.9814359 q 0,0.4464748 0.12058,0.5735735 0.12384,0.1270987 0.498618,0.1270987 h 0.61594 v 0.5018768 h -0.61594 q -0.694154,0 -0.958128,-0.2574563 Q 30.793423,7.3865359 30.793423,6.7021584 V 4.7207225 H 30.353466 V 4.254694 h 0.439957 V 3.2183509 Z"
       style="font-style:normal;font-weight:normal;font-size:6.67431px;line-height:1.25;font-family:sans-serif;fill:#000000;fill-opacity:1;stroke:none;stroke-width:0.166858"
       id="path846" />
    <path
       d="m 35.53518,4.8152318 q -0.101027,-0.058661 -0.221608,-0.084732 -0.117322,-0.029331 -0.260715,-0.029331 -0.508395,0 -0.782146,0.3324119 -0.270492,0.329153 -0.270492,0.9483517 v 1.922775 H 33.397315 V 4.254694 h 0.602904 v 0.5670557 q 0.189018,-0.3324119 0.4921,-0.4921 0.303081,-0.1629471 0.736521,-0.1629471 0.06192,0 0.136875,0.00978 0.07496,0.00652 0.166206,0.022812 z"
       style="font-style:normal;font-weight:normal;font-size:6.67431px;line-height:1.25;font-family:sans-serif;fill:#000000;fill-opacity:1;stroke:none;stroke-width:0.166858"
       id="path848" />
    <path
       d="m 37.431884,4.6750974 q -0.482324,0 -0.762593,0.3780371 -0.280268,0.3747781 -0.280268,1.0298252 0,0.655047 0.27701,1.0330841 0.280268,0.3747782 0.765851,0.3747782 0.479064,0 0.759333,-0.3780371 0.280269,-0.3780371 0.280269,-1.0298252 0,-0.6485292 -0.280269,-1.0265663 -0.280269,-0.381296 -0.759333,-0.381296 z m 0,-0.5083948 q 0.782145,0 1.22862,0.5083948 0.446475,0.5083947 0.446475,1.4078623 0,0.8962086 -0.446475,1.4078623 -0.446475,0.5083947 -1.22862,0.5083947 -0.785405,0 -1.23188,-0.5083947 -0.443216,-0.5116537 -0.443216,-1.4078623 0,-0.8994676 0.443216,-1.4078623 0.446475,-0.5083948 1.23188,-0.5083948 z"
       style="font-style:normal;font-weight:normal;font-size:6.67431px;line-height:1.25;font-family:sans-serif;fill:#000000;fill-opacity:1;stroke:none;stroke-width:0.166858"
       id="path850" />
    <path
       d="M 40.694083,3.2183509 V 4.254694 h 1.235138 v 0.4660285 h -1.235138 v 1.9814359 q 0,0.4464748 0.120581,0.5735735 0.123839,0.1270987 0.498617,0.1270987 h 0.61594 v 0.5018768 h -0.61594 q -0.694154,0 -0.958128,-0.2574563 Q 40.091179,7.3865359 40.091179,6.7021584 V 4.7207225 H 39.651222 V 4.254694 h 0.439957 V 3.2183509 Z"
       style="font-style:normal;font-weight:normal;font-size:6.67431px;line-height:1.25;font-family:sans-serif;fill:#000000;fill-opacity:1;stroke:none;stroke-width:0.166858"
       id="path852" />
    <path
       d="m 44.376684,6.0699239 q -0.726743,0 -1.007012,0.166206 -0.280269,0.1662059 -0.280269,0.5670556 0,0.3193762 0.208572,0.5083948 0.211831,0.1857596 0.573574,0.1857596 0.498618,0 0.79844,-0.3519656 0.303082,-0.3552245 0.303082,-0.9418338 V 6.0699239 Z m 1.196032,-0.2476795 v 2.082463 H 44.973071 V 7.3506875 q -0.205314,0.332412 -0.511654,0.4921001 -0.306341,0.1564291 -0.749556,0.1564291 -0.560538,0 -0.89295,-0.3128583 -0.329153,-0.3161172 -0.329153,-0.8440656 0,-0.6159397 0.410626,-0.928798 0.413886,-0.3128583 1.23188,-0.3128583 h 0.840807 v -0.058661 q 0,-0.4138854 -0.273751,-0.6387523 -0.270493,-0.2281258 -0.762593,-0.2281258 -0.312858,0 -0.609421,0.074956 -0.296564,0.074956 -0.570315,0.2248669 V 4.4209 q 0.329153,-0.1270987 0.638752,-0.1890185 0.3096,-0.065179 0.602904,-0.065179 0.791923,0 1.182996,0.4106265 0.391073,0.4106266 0.391073,1.2449154 z"
       style="font-style:normal;font-weight:normal;font-size:6.67431px;line-height:1.25;font-family:sans-serif;fill:#000000;fill-opacity:1;stroke:none;stroke-width:0.166858"
       id="path854" />
    <path
       d="m 46.807857,2.833796 h 0.599645 v 5.0709114 h -0.599645 z"
       style="font-style:normal;font-weight:normal;font-size:6.67431px;line-height:1.25;font-family:sans-serif;fill:#000000;fill-opacity:1;stroke:none;stroke-width:0.166858"
       id="path856" />
    <path
       d="m 48.662193,2.833796 h 0.599645 v 5.0709114 h -0.599645 z"
       style="font-style:normal;font-weight:normal;font-size:6.67431px;line-height:1.25;font-family:sans-serif;fill:#000000;fill-opacity:1;stroke:none;stroke-width:0.166858"
       id="path858" />
    <path
       d="M 53.638594,5.9297895 V 6.2230941 H 50.88153 q 0.03911,0.6191987 0.371519,0.9450928 0.335671,0.3226351 0.932057,0.3226351 0.345448,0 0.668083,-0.084732 0.325894,-0.084732 0.64527,-0.2541973 v 0.5670556 q -0.322635,0.1368755 -0.661565,0.2085722 -0.338929,0.071697 -0.687636,0.071697 -0.873396,0 -1.38505,-0.5083947 -0.508395,-0.5083947 -0.508395,-1.3752729 0,-0.8962087 0.482324,-1.4208981 0.485582,-0.5279484 1.306835,-0.5279484 0.73652,0 1.163442,0.4758054 0.43018,0.4725463 0.43018,1.2872807 z M 53.038949,5.7538067 q -0.0065,-0.4921 -0.27701,-0.7854047 -0.267233,-0.2933046 -0.710449,-0.2933046 -0.501877,0 -0.804959,0.2835278 -0.299822,0.2835278 -0.345447,0.7984404 z"
       style="font-style:normal;font-weight:normal;font-size:6.67431px;line-height:1.25;font-family:sans-serif;fill:#000000;fill-opacity:1;stroke:none;stroke-width:0.166858"
       id="path860" />
    <path
       d="m 56.737847,4.8152318 q -0.101027,-0.058661 -0.221608,-0.084732 -0.117322,-0.029331 -0.260715,-0.029331 -0.508395,0 -0.782146,0.3324119 -0.270492,0.329153 -0.270492,0.9483517 v 1.922775 H 54.599982 V 4.254694 h 0.602904 v 0.5670557 q 0.189019,-0.3324119 0.4921,-0.4921 0.303082,-0.1629471 0.736521,-0.1629471 0.06192,0 0.136875,0.00978 0.07496,0.00652 0.166206,0.022812 z"
       style="font-style:normal;font-weight:normal;font-size:6.67431px;line-height:1.25;font-family:sans-serif;fill:#000000;fill-opacity:1;stroke:none;stroke-width:0.166858"
       id="path862" />
    <path
       d="m 56.838875,7.0769365 h 0.687636 v 0.8277709 h -0.687636 z"
       style="font-style:normal;font-weight:normal;font-size:6.67431px;line-height:1.25;font-family:sans-serif;fill:#000000;fill-opacity:1;stroke:none;stroke-width:0.166858"
       id="path864" />
    <path
       d="m 61.502419,4.3948285 v 0.5605378 q -0.254197,-0.1401345 -0.511654,-0.2085722 -0.254197,-0.071697 -0.514912,-0.071697 -0.583351,0 -0.905986,0.3715192 -0.322635,0.3682603 -0.322635,1.0363431 0,0.6680828 0.322635,1.039602 0.322635,0.3682603 0.905986,0.3682603 0.260715,0 0.514912,-0.068438 0.257457,-0.071697 0.511654,-0.2118311 V 7.764573 q -0.250938,0.1173218 -0.52143,0.1759828 -0.267234,0.058661 -0.570315,0.058661 -0.824512,0 -1.310094,-0.5181715 -0.485582,-0.5181716 -0.485582,-1.3980855 0,-0.8929497 0.488841,-1.4046034 0.4921,-0.5116537 1.345942,-0.5116537 0.27701,0 0.540984,0.058661 0.263975,0.055402 0.511654,0.1694648 z"
       style="font-style:normal;font-weight:normal;font-size:6.67431px;line-height:1.25;font-family:sans-serif;fill:#000000;fill-opacity:1;stroke:none;stroke-width:0.166858"
       id="path866" />
    <path
       d="m 63.95966,4.6750974 q -0.482323,0 -0.762592,0.3780371 -0.280269,0.3747781 -0.280269,1.0298252 0,0.655047 0.27701,1.0330841 0.280269,0.3747782 0.765851,0.3747782 0.479065,0 0.759333,-0.3780371 0.280269,-0.3780371 0.280269,-1.0298252 0,-0.6485292 -0.280269,-1.0265663 -0.280268,-0.381296 -0.759333,-0.381296 z m 0,-0.5083948 q 0.782146,0 1.228621,0.5083948 0.446475,0.5083947 0.446475,1.4078623 0,0.8962086 -0.446475,1.4078623 -0.446475,0.5083947 -1.228621,0.5083947 -0.785404,0 -1.231879,-0.5083947 -0.443216,-0.5116537 -0.443216,-1.4078623 0,-0.8994676 0.443216,-1.4078623 0.446475,-0.5083948 1.231879,-0.5083948 z"
       style="font-style:normal;font-weight:normal;font-size:6.67431px;line-height:1.25;font-family:sans-serif;fill:#000000;fill-opacity:1;stroke:none;stroke-width:0.166858"
       id="path868" />
    <path
       d="m 69.47053,4.9553663 q 0.224867,-0.4041087 0.537726,-0.5963862 0.312858,-0.1922775 0.73652,-0.1922775 0.570315,0 0.879914,0.4008497 0.309599,0.3975908 0.309599,1.1341113 V 7.9047074 H 71.331385 V 5.7212173 q 0,-0.5246894 -0.185759,-0.7788868 -0.18576,-0.2541974 -0.567056,-0.2541974 -0.466028,0 -0.73652,0.3095994 -0.270492,0.3095993 -0.270492,0.8440656 V 7.9047074 H 68.968654 V 5.7212173 q 0,-0.5279484 -0.18576,-0.7788868 -0.18576,-0.2541974 -0.573574,-0.2541974 -0.45951,0 -0.730002,0.3128583 -0.270492,0.3095994 -0.270492,0.8408067 V 7.9047074 H 66.605922 V 4.254694 h 0.602904 v 0.5670557 q 0.205313,-0.3356709 0.4921,-0.495359 0.286786,-0.1596881 0.681118,-0.1596881 0.397591,0 0.674601,0.2020544 0.280269,0.2020543 0.413885,0.5866093 z"
       style="font-style:normal;font-weight:normal;font-size:6.67431px;line-height:1.25;font-family:sans-serif;fill:#000000;fill-opacity:1;stroke:none;stroke-width:0.166858"
       id="path870" />
  </g>
</svg>
